<?xml version="1.0" encoding="UTF-8" standalone="no"?> <svg id="Layer_1" data-name="Layer 1" xmlns="http://www.w3.org/2000/svg" viewBox="0 0 128 128"><defs><style>.cls-1{fill:#2d3e50;}.cls-2{fill:#1d75b8;}</style></defs><title>b</title><path class="cls-1" d="M15.16378,31.32754a8.03608,8.03608,0,0,0,15.77822,0l1.23181-6.33815a8.47605,8.47605,0,0,0-8.39865-9.61368H22.33062A8.47605,8.47605,0,0,0,13.932,24.98939Z"/><path class="cls-1" d="M41.24193,83.05384a.53566.53566,0,0,1-.02339.8329,4.07962,4.07962,0,0,1-2.6368.81931,3.8797,3.8797,0,0,1-1.97925-.63167c-.20213,7.18413-.39582,9.76976-.60638,17.00447-.059,2.54353-.16845,6.45983-.26109,9.76133a7.87092,7.87092,0,0,1-7.80742,7.65582l-4.87645.03367-4.8765-.03367a7.87652,7.87652,0,0,1-7.80737-7.65582c-.09268-3.3015-.19375-7.2178-.26109-9.76133-.20218-7.23471-.4043-9.82034-.60643-17.00447a3.85393,3.85393,0,0,1-1.9792.63167,4.07658,4.07658,0,0,1-4.2364-3.66365,1.28456,1.28456,0,0,1-.02524-.25271v-.059c-.04215-1.356-.11792-2.7035-.19375-4.05947-.0842-1.34759-.17683-2.69512-.28633-4.05109-.09263-1.356-.22742-2.70355-.33691-4.05114L2.05456,64.518a2.4759,2.4759,0,0,1,0-.35372l.06734-.60638.38744-3.7058c.10949-1.238.2358-2.47614.33686-3.7058.10949-1.238.19375-2.48451.28638-3.731.07582-1.238.15159-2.48451.18532-3.73947a6.20616,6.20616,0,0,1,2.67826-4.91855,2.20847,2.20847,0,0,1,.28633-.17689A5.70132,5.70132,0,0,1,9.0871,42.7381c1.39807-.19369,2.80461-.37058,4.21954-.539.85065-.11787,1.70125-.21893,2.54348-.32a1.91293,1.91293,0,0,1,2.00449.93485c1.05278,1.63391,2.14771,3.2594,3.23416,4.88488.62324.93485,1.2549,1.86133,1.94553,2.89725,0-.01686.01686-.01686.01686-.02529.00838.00843.01681.00843.02524.02529.69063-1.03592,1.31386-1.96239,1.94553-2.89725,1.0865-1.62548,2.17295-3.251,3.23416-4.88488a1.901,1.901,0,0,1,1.99606-.93485c.85065.10106,1.70131.20213,2.55191.32,1.40655.16845,2.82148.34534,4.21954.539a5.62007,5.62007,0,0,1,1.65077.30319L33.082,56.1547l-.24423.5727a8.56168,8.56168,0,0,0-.15159,6.283l6.03872,16.516A8.31054,8.31054,0,0,0,41.24193,83.05384Z"/><path class="cls-2" d="M55.65355,26.33163a8.50251,8.50251,0,0,0,16.6929,0l1.297-6.69568a8.95734,8.95734,0,0,0-8.877-10.16563h-1.5329a8.95734,8.95734,0,0,0-8.877,10.16563Z"/><path class="cls-2" d="M91.27959,58.36975l-.2358-.54741-6.61991-15.539a6.47245,6.47245,0,0,0-.34529-.6822,6.15547,6.15547,0,0,0-3.352-2.75408.031.031,0,0,1-.02529-.00843,6.88438,6.88438,0,0,0-1.59181-.39582c-1.59181-.219-3.20043-.42111-4.80068-.61486-.90113-.11787-1.80232-.22737-2.69507-.33686a2.02119,2.02119,0,0,0-2.114.98539c-1.12017,1.735-2.274,3.44471-3.41942,5.17126-.66539.98539-1.33073,1.97077-2.055,3.0657a.02635.02635,0,1,0-.05058,0c-.7243-1.09493-1.38964-2.08032-2.055-3.0657-1.14541-1.72655-2.29925-3.43628-3.41942-5.17126a2.02119,2.02119,0,0,0-2.114-.98539c-.89275.10949-1.79394.219-2.69507.33686-1.60024.19375-3.20886.39587-4.80068.61486a6.88438,6.88438,0,0,0-1.59181.39582.031.031,0,0,1-.02529.00843,6.15547,6.15547,0,0,0-3.352,2.75408,6.47245,6.47245,0,0,0-.34529.6822l-6.61991,15.539-.2358.54741a4.36191,4.36191,0,0,0-.0842,3.18362l.6822,1.8529,5.35652,14.65464a4.20554,4.20554,0,0,0,5.087,2.58563,4.1821,4.1821,0,0,0,2.88039-5.17126l-1.28014-4.50587L46.46493,60.79535l2.48457-3.95845c.01681.28638.03367.5559.03367.83384.02529.90956.059,1.81075.0842,2.72036.02529.84222.04215,1.68444.06739,2.5351l3.41942,12.00167a6.1979,6.1979,0,0,1-1.53285,6.02186,6.38389,6.38389,0,0,1-1.34754,1.036c.21056,7.68949.42111,10.40142.6401,18.09092.06734,2.69512.17683,6.83884.2779,10.32565A8.32417,8.32417,0,0,0,58.8456,118.496L64,118.52968l5.1544-.03367a8.32417,8.32417,0,0,0,8.25382-8.09374c.10106-3.48681.21056-7.63053.2779-10.32565.219-7.68949.42954-10.40142.6401-18.09092a6.38389,6.38389,0,0,1-1.34754-1.036,6.1979,6.1979,0,0,1-1.53285-6.02186L78.86524,62.9262c.02524-.85065.0421-1.69287.06739-2.5351.02524-.90961.05891-1.8108.0842-2.72036,0-.27795.01686-.54747.03367-.83384l2.48457,3.95845L78.63783,70.96941l-1.28014,4.50587a4.19124,4.19124,0,0,0,7.96739,2.58563l5.35652-14.65464.6822-1.8529A4.36191,4.36191,0,0,0,91.27959,58.36975Z"/><path class="cls-1" d="M112.83622,31.32754a8.03608,8.03608,0,0,1-15.77822,0l-1.23181-6.33815a8.47605,8.47605,0,0,1,8.39865-9.61368h1.44454a8.47605,8.47605,0,0,1,8.39865,9.61368Z"/><path class="cls-1" d="M86.75807,83.05384a.53566.53566,0,0,0,.02339.8329,4.07962,4.07962,0,0,0,2.6368.81931,3.8797,3.8797,0,0,0,1.97925-.63167c.20213,7.18413.39582,9.76976.60638,17.00447.059,2.54353.16845,6.45983.26109,9.76133a7.87092,7.87092,0,0,0,7.80742,7.65582l4.87645.03367,4.8765-.03367a7.87652,7.87652,0,0,0,7.80737-7.65582c.09268-3.3015.19375-7.2178.26109-9.76133.20218-7.23471.4043-9.82034.60643-17.00447a3.85393,3.85393,0,0,0,1.9792.63167,4.07658,4.07658,0,0,0,4.2364-3.66365,1.28456,1.28456,0,0,0,.02524-.25271v-.059c.04215-1.356.11792-2.7035.19375-4.05947.0842-1.34759.17683-2.69512.28633-4.05109.09263-1.356.22742-2.70355.33691-4.05114l.38739-4.05109a2.47588,2.47588,0,0,0,0-.35372l-.06734-.60638-.38744-3.7058c-.10949-1.238-.2358-2.47614-.33686-3.7058-.10949-1.238-.19375-2.48451-.28638-3.731-.07582-1.238-.15159-2.48451-.18532-3.73947a6.20616,6.20616,0,0,0-2.67826-4.91855,2.20848,2.20848,0,0,0-.28633-.17689,5.70132,5.70132,0,0,0-2.80461-.84222c-1.39807-.19369-2.80461-.37058-4.21954-.539-.85065-.11787-1.70125-.21893-2.54348-.32a1.91293,1.91293,0,0,0-2.00449.93485c-1.05278,1.63391-2.14771,3.2594-3.23416,4.88488-.62324.93485-1.2549,1.86133-1.94553,2.89725,0-.01686-.01686-.01686-.01686-.02529-.00838.00843-.01681.00843-.02524.02529-.69063-1.03592-1.31386-1.96239-1.94553-2.89725-1.0865-1.62548-2.17295-3.251-3.23416-4.88488a1.901,1.901,0,0,0-1.99606-.93485c-.85065.10106-1.70131.20213-2.55191.32-1.40655.16845-2.82148.34534-4.21954.539a5.62007,5.62007,0,0,0-1.65077.30319L94.918,56.1547l.24423.5727a8.56168,8.56168,0,0,1,.15159,6.283l-6.03872,16.516A8.31054,8.31054,0,0,1,86.75807,83.05384Z"/></svg>