<?xml version="1.0" encoding="iso-8859-1"?>
<!-- Generator: Adobe Illustrator 19.0.0, SVG Export Plug-In . SVG Version: 6.00 Build 0)  -->
<svg version="1.1" id="Capa_1" xmlns="http://www.w3.org/2000/svg" xmlns:xlink="http://www.w3.org/1999/xlink" x="0px" y="0px"
	 viewBox="0 0 480 480" style="enable-background:new 0 0 480 480;" xml:space="preserve">
<g>
	<path style="fill:#F88756;" d="M88,168c0,4.08-1.04,7.84-2.8,11.2c-4,7.6-12,12.8-21.2,12.8c-13.28,0-24-10.72-24-24
		c0-13.28,10.72-24,24-24S88,154.72,88,168z"/>
	<path style="fill:#F88756;" d="M472,80c0,13.28-10.72,24-24,24c-10.16,0-18.8-6.24-22.24-15.12C424.64,86.16,424,83.12,424,80
		c0-13.28,10.72-24,24-24S472,66.72,472,80z"/>
</g>
<path style="fill:#3F708D;" d="M480,480H8c-4.422,0-8-3.578-8-8V0h16v464h464V480z"/>
<g>
	<path style="fill:#F88756;" d="M224,240c0,13.28-10.72,24-24,24s-24-10.72-24-24c0-4.08,1.04-7.84,2.8-11.2
		c4-7.6,12-12.8,21.2-12.8c7.2,0,13.68,3.2,18,8.24C221.76,228.4,224,233.92,224,240z"/>
	<path style="fill:#F88756;" d="M352,128c0,13.28-10.72,24-24,24c-7.2,0-13.68-3.2-18-8.24c-3.76-4.16-6-9.68-6-15.76
		c0-13.28,10.72-24,24-24c10.16,0,18.8,6.24,22.24,15.12C351.36,121.84,352,124.88,352,128z"/>
</g>
<g>
	
		<rect x="202.878" y="175.971" transform="matrix(-0.7529 0.6582 -0.6582 -0.7529 583.8395 148.7263)" style="fill:#3F708D;" width="122.24" height="16"/>
	
		<rect x="347.359" y="95.989" transform="matrix(-0.9283 0.3719 -0.3719 -0.9283 786.9026 56.2099)" style="fill:#3F708D;" width="81.344" height="16"/>
	
		<rect x="124.003" y="151.038" transform="matrix(-0.4682 0.8836 -0.8836 -0.4682 374.0653 182.8717)" style="fill:#3F708D;" width="16" height="105.92"/>
	<rect x="40" y="328" style="fill:#3F708D;" width="32" height="112"/>
	<rect x="184" y="376" style="fill:#3F708D;" width="32" height="64"/>
	<rect x="312" y="264" style="fill:#3F708D;" width="32" height="176"/>
	<rect x="440" y="216" style="fill:#3F708D;" width="32" height="224"/>
	<rect x="40" y="24" style="fill:#3F708D;" width="48" height="32"/>
</g>
<g>
	<rect x="112" y="16" style="fill:#FFBE00;" width="80" height="16"/>
	<rect x="112" y="48" style="fill:#FFBE00;" width="48" height="16"/>
	<rect x="304" y="16" style="fill:#FFBE00;" width="80" height="16"/>
	<rect x="304" y="48" style="fill:#FFBE00;" width="48" height="16"/>
</g>
<circle style="fill:#F88756;" cx="256" cy="40" r="24"/>
<path d="M64,200c9.146,0,17.637-3.89,23.611-10.467l81.277,43.067c-0.582,2.416-0.888,4.886-0.888,7.4c0,17.648,14.352,32,32,32
	s32-14.352,32-32c0-5.078-1.306-9.941-3.514-14.301l81.578-71.368C315.293,157.925,321.491,160,328,160c17.648,0,32-14.352,32-32
	c0-1.34-0.219-2.674-0.393-4.011l62.65-25.083C428.132,107.015,437.534,112,448,112c17.648,0,32-14.352,32-32s-14.352-32-32-32
	s-32,14.352-32,32c0,1.34,0.219,2.674,0.393,4.011l-62.65,25.083C347.869,100.985,338.466,96,328,96c-17.648,0-32,14.352-32,32
	c0,5.078,1.306,9.941,3.514,14.301l-81.579,71.368C212.707,210.075,206.509,208,200,208c-9.146,0-17.637,3.89-23.611,10.467
	L95.112,175.4C95.693,172.985,96,170.515,96,168c0-17.648-14.352-32-32-32s-32,14.352-32,32S46.352,200,64,200z M448,64
	c8.82,0,16,7.18,16,16s-7.18,16-16,16c-6.617,0-12.422-3.93-14.836-10.148C432.398,84,432,81.977,432,80C432,71.18,439.18,64,448,64
	z M328,112c6.617,0,12.422,3.93,14.836,10.148C343.602,124,344,126.023,344,128c0,8.82-7.18,16-16,16
	c-4.609,0-8.961-1.984-12.063-5.609C313.398,135.586,312,131.898,312,128C312,119.18,319.18,112,328,112z M185.875,232.523
	c2.773-5.258,8.18-8.523,14.125-8.523c4.609,0,8.961,1.984,12.063,5.609C214.602,232.414,216,236.102,216,240c0,8.82-7.18,16-16,16
	s-16-7.18-16-16C184,237.414,184.633,234.898,185.875,232.523z M64,152c8.82,0,16,7.18,16,16c0,2.586-0.633,5.102-1.875,7.477
	C75.352,180.734,69.945,184,64,184c-8.82,0-16-7.18-16-16S55.18,152,64,152z"/>
<path d="M16,0H0v472c0,4.422,3.578,8,8,8h472v-16H16V0z"/>
<path d="M40,448h32c4.422,0,8-3.578,8-8V328c0-4.422-3.578-8-8-8H40c-4.422,0-8,3.578-8,8v112C32,444.422,35.578,448,40,448z
	 M48,336h16v96H48V336z"/>
<path d="M216,368h-32c-4.422,0-8,3.578-8,8v64c0,4.422,3.578,8,8,8h32c4.422,0,8-3.578,8-8v-64C224,371.578,220.422,368,216,368z
	 M208,432h-16v-48h16V432z"/>
<path d="M344,256h-32c-4.422,0-8,3.578-8,8v176c0,4.422,3.578,8,8,8h32c4.422,0,8-3.578,8-8V264C352,259.578,348.422,256,344,256z
	 M336,432h-16V272h16V432z"/>
<path d="M472,208h-32c-4.422,0-8,3.578-8,8v224c0,4.422,3.578,8,8,8h32c4.422,0,8-3.578,8-8V216C480,211.578,476.422,208,472,208z
	 M464,432h-16V224h16V432z"/>
<path d="M40,64h48c4.422,0,8-3.578,8-8V24c0-4.422-3.578-8-8-8H40c-4.422,0-8,3.578-8,8v32C32,60.422,35.578,64,40,64z M48,32h32v16
	H48V32z"/>
<rect x="112" y="16" width="80" height="16"/>
<rect x="112" y="48" width="48" height="16"/>
<rect x="304" y="16" width="80" height="16"/>
<rect x="304" y="48" width="48" height="16"/>
<path d="M256,72c17.648,0,32-14.352,32-32S273.648,8,256,8s-32,14.352-32,32S238.352,72,256,72z M256,24c8.82,0,16,7.18,16,16
	s-7.18,16-16,16s-16-7.18-16-16S247.18,24,256,24z"/>
<g>
</g>
<g>
</g>
<g>
</g>
<g>
</g>
<g>
</g>
<g>
</g>
<g>
</g>
<g>
</g>
<g>
</g>
<g>
</g>
<g>
</g>
<g>
</g>
<g>
</g>
<g>
</g>
<g>
</g>
</svg>
